<svg version="1.2" xmlns="http://www.w3.org/2000/svg" xmlns:xlink="http://www.w3.org/1999/xlink" overflow="visible" preserveAspectRatio="none" viewBox="0 0 26 26" height="34" width="34"><g transform="translate(1, 1)"><desc>Created with Sketch.</desc><defs><path id="path-1_1585604219091" d="M15.755,14.255 L14.965,14.255 L14.685,13.985 C15.665,12.845 16.255,11.365 16.255,9.755 C16.255,6.165 13.345,3.255 9.755,3.255 C6.165,3.255 3.255,6.165 3.255,9.755 C3.255,13.345 6.165,16.255 9.755,16.255 C11.365,16.255 12.845,15.665 13.985,14.685 L14.255,14.965 L14.255,15.755 L19.255,20.745 L20.745,19.255 L15.755,14.255 Z M9.755,14.255 C7.265,14.255 5.255,12.245 5.255,9.755 C5.255,7.265 7.265,5.255 9.755,5.255 C12.245,5.255 14.255,7.265 14.255,9.755 C14.255,12.245 12.245,14.255 9.755,14.255 Z" vector-effect="non-scaling-stroke" style=""/></defs><g fill-rule="evenodd" fill="none" stroke-width="1" stroke="none" id="icon/action/search_24px_1585604219091"><mask fill="white" id="mask-2_1585604219091" vector-effect="non-scaling-stroke" style=""><use xmlns:xlink="http://www.w3.org/1999/xlink" xlink:href="#path-1_1585604219091" vector-effect="non-scaling-stroke" style=""/></mask><g fill-rule="nonzero"/><g fill="#000000" mask="url(#mask-2_1585604219091)" id="✱-/-Color-/-Icons-/-Black-/-Inactive_1585604219091"><rect height="24" width="24" y="0" x="0" id="Rectangle_1585604219091" vector-effect="non-scaling-stroke" style="fill: rgb(7, 29, 46);"/></g></g></g></svg>