<svg version="1.2" xmlns="http://www.w3.org/2000/svg" xmlns:xlink="http://www.w3.org/1999/xlink" overflow="visible" preserveAspectRatio="none" viewBox="0 0 409 384" width="409" height="384"><g transform="translate(0, 0)"><defs><path id="path-161247404607115503" d="M0 0 C0 0 408.99999999999994 0 408.99999999999994 0 C408.99999999999994 0 408.99999999999994 384.0000000000002 408.99999999999994 384.0000000000002 C408.99999999999994 384.0000000000002 0 384.0000000000002 0 384.0000000000002 C0 384.0000000000002 0 0 0 0 Z" vector-effect="non-scaling-stroke"/><linearGradient id="gradient-161247404613815594" x1="0%" y1="50%" x2="100%" y2="50%" vector-effect="non-scaling-stroke"><stop offset="0%" stop-color="rgba(39,169,225,0.26)" stop-opacity="0.26" vector-effect="non-scaling-stroke"/><stop offset="30%" stop-color="rgb(81,159,237)" stop-opacity="1" vector-effect="non-scaling-stroke"/><stop offset="67%" stop-color="rgba(81,159,237,0.99)" stop-opacity="0.99" vector-effect="non-scaling-stroke"/><stop offset="100%" stop-color="rgba(81,159,237,0.26)" stop-opacity="0.26" vector-effect="non-scaling-stroke"/></linearGradient></defs><g transform="translate(0, 0)"><path d="M0 0 C0 0 408.99999999999994 0 408.99999999999994 0 C408.99999999999994 0 408.99999999999994 384.0000000000002 408.99999999999994 384.0000000000002 C408.99999999999994 384.0000000000002 0 384.0000000000002 0 384.0000000000002 C0 384.0000000000002 0 0 0 0 Z" style="stroke: rgb(140, 140, 140); stroke-width: 0; stroke-linecap: butt; stroke-linejoin: miter; fill: url(&quot;#gradient-161247404613815594&quot;);" vector-effect="non-scaling-stroke"/></g></g></svg>