<svg version="1.2" xmlns="http://www.w3.org/2000/svg" xmlns:xlink="http://www.w3.org/1999/xlink" overflow="visible" preserveAspectRatio="none" viewBox="0 0 1372 520" width="1372" height="520"><g transform="translate(0, 0)"><defs><path id="path-16134988179181516" d="M0 0 C0 0 1372 0 1372 0 C1372 0 1372 520.0000000000008 1372 520.0000000000008 C1372 520.0000000000008 0 520.0000000000008 0 520.0000000000008 C0 520.0000000000008 0 0 0 0 Z" vector-effect="non-scaling-stroke"/><linearGradient id="gradient-16134988179921695" x1="0%" y1="50%" x2="100%" y2="50%" vector-effect="non-scaling-stroke"><stop offset="0%" stop-color="rgb(153,26,99)" stop-opacity="1" vector-effect="non-scaling-stroke"/><stop offset="100%" stop-color="rgb(7,29,46)" stop-opacity="1" vector-effect="non-scaling-stroke"/></linearGradient></defs><g transform="translate(0, 0)"><path d="M0 0 C0 0 1372 0 1372 0 C1372 0 1372 520.0000000000008 1372 520.0000000000008 C1372 520.0000000000008 0 520.0000000000008 0 520.0000000000008 C0 520.0000000000008 0 0 0 0 Z" style="stroke: rgb(140, 140, 140); stroke-width: 0; stroke-linecap: butt; stroke-linejoin: miter; fill: url(&quot;#gradient-16134988179921695&quot;);" vector-effect="non-scaling-stroke"/></g></g></svg>