<svg version="1.2" xmlns="http://www.w3.org/2000/svg" xmlns:xlink="http://www.w3.org/1999/xlink" overflow="visible" preserveAspectRatio="none" viewBox="0 0 409 383" width="409" height="383"><g transform="translate(0, 0)"><defs><path id="path-161247404606915492" d="M0 0 C0 0 408.99999999999955 0 408.99999999999955 0 C408.99999999999955 0 408.99999999999955 383.0000000000001 408.99999999999955 383.0000000000001 C408.99999999999955 383.0000000000001 0 383.0000000000001 0 383.0000000000001 C0 383.0000000000001 0 0 0 0 Z" vector-effect="non-scaling-stroke"/><linearGradient id="gradient-161247404614215600" x1="0%" y1="50%" x2="100%" y2="50%" vector-effect="non-scaling-stroke"><stop offset="0%" stop-color="rgba(204,72,20,0.25)" stop-opacity="0.25" vector-effect="non-scaling-stroke"/><stop offset="30%" stop-color="rgb(204,72,20)" stop-opacity="1" vector-effect="non-scaling-stroke"/><stop offset="67%" stop-color="rgb(204,72,20)" stop-opacity="1" vector-effect="non-scaling-stroke"/><stop offset="100%" stop-color="rgba(204,72,20,0.25)" stop-opacity="0.25" vector-effect="non-scaling-stroke"/></linearGradient></defs><g transform="translate(0, 0)"><path d="M0 0 C0 0 408.99999999999955 0 408.99999999999955 0 C408.99999999999955 0 408.99999999999955 383.0000000000001 408.99999999999955 383.0000000000001 C408.99999999999955 383.0000000000001 0 383.0000000000001 0 383.0000000000001 C0 383.0000000000001 0 0 0 0 Z" style="stroke: rgb(140, 140, 140); stroke-width: 0; stroke-linecap: butt; stroke-linejoin: miter; fill: url(&quot;#gradient-161247404614215600&quot;);" vector-effect="non-scaling-stroke"/></g></g></svg>