<svg version="1.2" xmlns="http://www.w3.org/2000/svg" xmlns:xlink="http://www.w3.org/1999/xlink" overflow="visible" preserveAspectRatio="none" viewBox="0 0 757 92" width="757" height="92"><g transform="translate(0, 0)"><defs><path id="path-16135032971102671" d="M0 0 C0 0 756.9999999999982 0 756.9999999999982 0 C756.9999999999982 0 756.9999999999982 91.99999999999999 756.9999999999982 91.99999999999999 C756.9999999999982 91.99999999999999 0 91.99999999999999 0 91.99999999999999 C0 91.99999999999999 0 0 0 0 Z" vector-effect="non-scaling-stroke"/><linearGradient id="gradient-16135032971372706" x1="0%" y1="50%" x2="100%" y2="50%" vector-effect="non-scaling-stroke"><stop offset="0%" stop-color="rgba(204,72,20,0.25)" stop-opacity="0.25" vector-effect="non-scaling-stroke"/><stop offset="30%" stop-color="rgb(204,72,20)" stop-opacity="1" vector-effect="non-scaling-stroke"/><stop offset="67%" stop-color="rgb(204,72,20)" stop-opacity="1" vector-effect="non-scaling-stroke"/><stop offset="100%" stop-color="rgba(204,72,20,0.25)" stop-opacity="0.25" vector-effect="non-scaling-stroke"/></linearGradient></defs><g transform="translate(0, 0)"><path d="M0 0 C0 0 756.9999999999982 0 756.9999999999982 0 C756.9999999999982 0 756.9999999999982 91.99999999999999 756.9999999999982 91.99999999999999 C756.9999999999982 91.99999999999999 0 91.99999999999999 0 91.99999999999999 C0 91.99999999999999 0 0 0 0 Z" style="stroke: rgb(140, 140, 140); stroke-width: 0; stroke-linecap: butt; stroke-linejoin: miter; fill: url(&quot;#gradient-16135032971372706&quot;);" vector-effect="non-scaling-stroke"/></g></g></svg>