<svg width="27" height="20" viewBox="0 0 27 20" fill="none" xmlns="http://www.w3.org/2000/svg">
<mask id="path-1-inside-1_965_2167" fill="white">
<path fill-rule="evenodd" clip-rule="evenodd" d="M5 0.709717C2.23858 0.709717 0 2.94829 0 5.70972V14.2904C0 17.0518 2.23858 19.2904 5 19.2904H21.1818C23.9432 19.2904 26.1818 17.0518 26.1818 14.2904V5.70972C26.1818 2.94829 23.9432 0.709717 21.1818 0.709717H5ZM10.1349 14.3886L17.7361 10.0001L10.1349 5.61153V14.3886Z"/>
</mask>
<path fill-rule="evenodd" clip-rule="evenodd" d="M5 0.709717C2.23858 0.709717 0 2.94829 0 5.70972V14.2904C0 17.0518 2.23858 19.2904 5 19.2904H21.1818C23.9432 19.2904 26.1818 17.0518 26.1818 14.2904V5.70972C26.1818 2.94829 23.9432 0.709717 21.1818 0.709717H5ZM10.1349 14.3886L17.7361 10.0001L10.1349 5.61153V14.3886Z" fill="white"/>
<path d="M17.7361 10.0001L18.2361 10.8661L19.7361 10.0001L18.2361 9.13404L17.7361 10.0001ZM10.1349 14.3886H9.13491V16.1207L10.6349 15.2546L10.1349 14.3886ZM10.1349 5.61153L10.6349 4.7455L9.13491 3.87948V5.61153H10.1349ZM1 5.70972C1 3.50058 2.79086 1.70972 5 1.70972V-0.290283C1.68629 -0.290283 -1 2.39601 -1 5.70972H1ZM1 14.2904V5.70972H-1V14.2904H1ZM5 18.2904C2.79086 18.2904 1 16.4995 1 14.2904H-1C-1 17.6041 1.68629 20.2904 5 20.2904V18.2904ZM21.1818 18.2904H5V20.2904H21.1818V18.2904ZM25.1818 14.2904C25.1818 16.4995 23.391 18.2904 21.1818 18.2904V20.2904C24.4955 20.2904 27.1818 17.6041 27.1818 14.2904H25.1818ZM25.1818 5.70972V14.2904H27.1818V5.70972H25.1818ZM21.1818 1.70972C23.391 1.70972 25.1818 3.50058 25.1818 5.70972H27.1818C27.1818 2.39601 24.4955 -0.290283 21.1818 -0.290283V1.70972ZM5 1.70972H21.1818V-0.290283H5V1.70972ZM17.2361 9.13404L9.63491 13.5226L10.6349 15.2546L18.2361 10.8661L17.2361 9.13404ZM9.63491 6.47755L17.2361 10.8661L18.2361 9.13404L10.6349 4.7455L9.63491 6.47755ZM11.1349 14.3886V5.61153H9.13491V14.3886H11.1349Z" fill="white" mask="url(#path-1-inside-1_965_2167)"/>
</svg>
